<svg width="24" height="24" viewBox="0 0 24 24" fill="none" xmlns="http://www.w3.org/2000/svg">
<path d="M21 19L15.846 13.846C16.7988 12.3979 17.1804 10.6478 16.917 8.93444C16.6535 7.22112 15.7637 5.66649 14.4199 4.57155C13.076 3.47661 11.3737 2.91924 9.64245 3.00736C7.91123 3.09549 6.27429 3.82283 5.04855 5.04857C3.82281 6.2743 3.09547 7.91125 3.00735 9.64246C2.91923 11.3737 3.47659 13.076 4.57154 14.4199C5.66648 15.7637 7.22111 16.6535 8.93442 16.917C10.6477 17.1804 12.3979 16.7988 13.846 15.846L19 21L21 19ZM4.99998 9.99999C4.99998 7.24299 7.24298 4.99999 9.99998 4.99999C12.757 4.99999 15 7.24299 15 9.99999C15 12.757 12.757 15 9.99998 15C7.24298 15 4.99998 12.757 4.99998 9.99999Z" fill="black"/>
</svg>
