<svg width="24" height="24" viewBox="0 0 24 24" fill="none" xmlns="http://www.w3.org/2000/svg">
<path d="M7.91 20.889C16.212 20.889 20.755 14.004 20.755 8.044C20.755 7.851 20.755 7.657 20.746 7.464C21.6305 6.823 22.3937 6.02962 23 5.121C22.174 5.48477 21.299 5.72501 20.403 5.834C21.3474 5.26934 22.0545 4.38095 22.393 3.334C21.5059 3.85937 20.5351 4.22841 19.523 4.425C19.1012 3.97432 18.5912 3.61524 18.0247 3.37009C17.4582 3.12495 16.8473 2.99897 16.23 3C15.0326 3.00106 13.8846 3.47719 13.0379 4.32388C12.1912 5.17056 11.7151 6.31861 11.714 7.516C11.714 7.868 11.758 8.212 11.828 8.546C10.0329 8.45579 8.27691 7.98914 6.67387 7.17634C5.07083 6.36354 3.65661 5.22274 2.523 3.828C1.94682 4.82293 1.77088 5.99984 2.0309 7.11977C2.29091 8.23971 2.9674 9.21871 3.923 9.858C3.20746 9.83189 2.5079 9.63911 1.88 9.295V9.356C1.8811 10.3981 2.24192 11.4078 2.90149 12.2146C3.56106 13.0214 4.47893 13.5758 5.5 13.784C5.11278 13.891 4.71273 13.9445 4.311 13.943C4.021 13.943 3.73933 13.9163 3.466 13.863C3.7532 14.7607 4.3144 15.5458 5.07077 16.1081C5.82714 16.6704 6.74066 16.9816 7.683 16.998C6.0843 18.2551 4.10877 18.9371 2.075 18.934C1.71577 18.9351 1.35679 18.9148 1 18.873C3.06401 20.1901 5.46156 20.8896 7.91 20.889Z" fill="white"/>
</svg>
